<svg xmlns="http://www.w3.org/2000/svg" xmlns:svg="http://www.w3.org/2000/svg" id="svg2635" width="231.938" height="10mm" version="1.1" viewBox="0 0 61.367 10"><g id="layer1" transform="matrix(0.54381696,0,0,0.54381696,17.849131,-90.786005)"><path style="display:inline;fill:#fff;fill-opacity:1;stroke:none;stroke-width:.251984;stroke-linecap:butt;stroke-linejoin:round;stroke-miterlimit:4;stroke-dasharray:none;stroke-opacity:1" id="path4550" d="m -32.821946,179.90679 h 11.641667 l 3.439583,-3.43958 v -0.92605 l -8.598958,-8.59895 h -1.256771 v 5.09322 l 3.571875,3.57188 v 0.92604 h -4.365625 v -9.59114 h -4.431771 z"/><path style="display:inline;fill:#fff;fill-opacity:1;stroke:none;stroke-width:.251984;stroke-linecap:butt;stroke-linejoin:round;stroke-miterlimit:4;stroke-dasharray:none;stroke-opacity:1" id="path4552" d="m -16.020905,179.90679 h 13.8906253 l -3.4395833,-3.43958 h -5.886979 v -9.525 h -4.564063 z"/><path style="display:inline;fill:#fff;fill-opacity:1;stroke:none;stroke-width:.251984;stroke-linecap:butt;stroke-linejoin:round;stroke-miterlimit:4;stroke-dasharray:none;stroke-opacity:1" id="path4554" d="m -10.729238,175.54116 h 6.746875 l -3.5057292,-3.50573 h -3.2411458 z"/><path style="display:inline;fill:#fff;fill-opacity:1;stroke:none;stroke-width:.251984;stroke-linecap:butt;stroke-linejoin:round;stroke-miterlimit:4;stroke-dasharray:none;stroke-opacity:1" id="path4556" d="m -10.729238,171.24168 h 6.0192708 l -4.2994791,-4.29947 h -1.7197917 z"/><path style="display:inline;fill:#fff;fill-opacity:1;stroke:none;stroke-width:.251984;stroke-linecap:butt;stroke-linejoin:round;stroke-miterlimit:4;stroke-dasharray:none;stroke-opacity:1" id="path4558" d="m 3.9551369,166.94221 -4.29947914,4.29947 H 13.413991 l -4.2994792,-4.29947 z"/><path style="display:inline;fill:#fff;fill-opacity:1;stroke:none;stroke-width:.251984;stroke-linecap:butt;stroke-linejoin:round;stroke-miterlimit:4;stroke-dasharray:none;stroke-opacity:1" id="path4560" d="m 2.1030536,172.03543 2.7781249,2.77813 v 0.7276 h -5.22552074 l 4.36562494,4.36563 h 4.9609374 l 3.9026039,-3.90261 v -0.39687 l -3.5718747,-3.57188 z"/><path style="display:inline;fill:#fff;fill-opacity:1;stroke:none;stroke-width:.251984;stroke-linecap:butt;stroke-linejoin:round;stroke-miterlimit:4;stroke-dasharray:none;stroke-opacity:1" id="path4562" d="m 15.266074,175.47502 4.431771,4.43177 h 6.151562 l 4.365625,-4.36563 h -7.474479 l -3.505729,-3.50573 h -3.96875 z"/><path style="display:inline;fill:#fff;fill-opacity:1;stroke:none;stroke-width:.251984;stroke-linecap:butt;stroke-linejoin:round;stroke-miterlimit:4;stroke-dasharray:none;stroke-opacity:1" id="path4564" d="m 19.565553,166.94221 -4.299479,4.29947 h 13.229167 l -4.299479,-4.29947 z"/><path style="display:inline;fill:#fff;fill-opacity:1;stroke:none;stroke-width:.251984;stroke-linecap:butt;stroke-linejoin:round;stroke-miterlimit:4;stroke-dasharray:none;stroke-opacity:1" id="path4566" d="m 31.934824,179.90679 h 13.890625 l -3.439583,-3.43958 h -5.88698 v -9.525 h -4.564062 z"/><path style="display:inline;fill:#fff;fill-opacity:1;stroke:none;stroke-width:.251984;stroke-linecap:butt;stroke-linejoin:round;stroke-miterlimit:4;stroke-dasharray:none;stroke-opacity:1" id="path4568" d="m 37.226491,166.94221 v 4.29947 h 6.01927 l -4.299479,-4.29947 z"/><path style="display:inline;fill:#fff;fill-opacity:1;stroke:none;stroke-width:.251984;stroke-linecap:butt;stroke-linejoin:round;stroke-miterlimit:4;stroke-dasharray:none;stroke-opacity:1" id="path4570" d="m 37.226491,175.54116 h 6.746875 l -3.50573,-3.50573 h -3.241145 z"/><path style="display:inline;fill:#fff;fill-opacity:1;stroke:none;stroke-width:.251984;stroke-linecap:butt;stroke-linejoin:round;stroke-miterlimit:4;stroke-dasharray:none;stroke-opacity:1" id="path4572" d="m 47.54524,179.90679 h 4.564063 v -8.40052 l -4.564063,-4.56406 z"/><path style="display:inline;fill:#fff;fill-opacity:1;stroke:none;stroke-width:.251984;stroke-linecap:butt;stroke-linejoin:round;stroke-miterlimit:4;stroke-dasharray:none;stroke-opacity:1" id="path4574" d="m 58.062428,166.94221 v 8.59895 H 57.07024 l -4.233333,-4.23333 v 4.16719 l 4.431771,4.43177 h 5.291666 v -8.46667 z"/><path style="display:inline;fill:#fff;fill-opacity:1;stroke:none;stroke-width:.251984;stroke-linecap:butt;stroke-linejoin:round;stroke-miterlimit:4;stroke-dasharray:none;stroke-opacity:1" id="path4576" d="m 66.859824,180.89898 4.43177,4.43177 v -13.29532 h -4.43177 z"/><path style="display:inline;fill:#fff;fill-opacity:1;stroke:none;stroke-width:.251984;stroke-linecap:butt;stroke-linejoin:round;stroke-miterlimit:4;stroke-dasharray:none;stroke-opacity:1" id="path4578" d="m 64.21399,171.24168 h 15.808854 l -4.299479,-4.29947 H 64.21399 Z"/></g></svg>